Coordinates
version=1
nRows=54
nColumns=12
inDegrees=yes

Units are S.I. units (second, meters, Newtons, ...)
Angles are in degrees

endheader
time	SC_y	SC_z	SC_x	AC_y	AC_z	AC_x	GH_y	GH_z	GH_yy	EL_x	PS_y
       0.0              -28.48          28.35           54.3          46.26         -14.14          -11.0         -43.19          23.81          -98.7          106.9          31.92
   0.01561              -28.48          28.35           54.3          46.26         -14.14         -10.99         -43.19          23.81         -98.67          106.9          31.93
   0.03122              -28.48          28.35          54.31          46.26         -14.14         -10.99         -43.18           23.8         -98.64          106.9          31.95
   0.04683              -28.47          28.34          54.31          46.27         -14.14         -10.99         -43.17           23.8         -98.61          106.9          31.96
   0.06244              -28.47          28.34          54.32          46.27         -14.14         -10.99         -43.16          23.79         -98.57          106.9          31.98
   0.07805              -28.47          28.34          54.32          46.27         -14.13         -10.98         -43.15          23.79         -98.54          106.9           32.0
   0.09366              -28.47          28.34          54.33          46.27         -14.13         -10.98         -43.14          23.78          -98.5          106.9          32.02
    0.1093              -28.46          28.34          54.33          46.28         -14.13         -10.98         -43.13          23.77         -98.45          106.9          32.04
    0.1249              -28.46          28.34          54.34          46.28         -14.12         -10.97         -43.12          23.77         -98.41          106.9          32.06
    0.1405              -28.46          28.34          54.35          46.28         -14.12         -10.97         -43.11          23.76         -98.36          106.9          32.09
    0.1561              -28.45          28.33          54.35          46.29         -14.12         -10.97          -43.1          23.75         -98.31          106.9          32.11
    0.1717              -28.45          28.33          54.36          46.29         -14.11         -10.96         -43.09          23.74         -98.26          106.9          32.14
    0.1873              -28.44          28.33          54.37          46.29         -14.11         -10.96         -43.07          23.73          -98.2          106.9          32.17
    0.2029              -28.44          28.33          54.38           46.3          -14.1         -10.95         -43.06          23.72         -98.13          107.0          32.21
    0.2185              -28.43          28.32          54.39           46.3          -14.1         -10.95         -43.04          23.71         -98.06          107.0          32.24
    0.2341              -28.43          28.32           54.4          46.31         -14.09         -10.94         -43.02           23.7         -97.99          107.0          32.28
    0.2498              -28.42          28.32          54.42          46.31         -14.09         -10.93          -43.0          23.69          -97.9          107.0          32.32
    0.2654              -28.42          28.31          54.43          46.32         -14.08         -10.93         -42.98          23.67         -97.81          107.0          32.37
     0.281              -28.41          28.31          54.44          46.33         -14.08         -10.92         -42.96          23.66         -97.72          107.0          32.42
    0.2966               -28.4          28.31          54.46          46.33         -14.07         -10.91         -42.93          23.64         -97.61          107.0          32.47
    0.3122              -28.39           28.3          54.48          46.34         -14.06          -10.9          -42.9          23.62         -97.49          107.0          32.53
    0.3278              -28.38           28.3           54.5          46.35         -14.05         -10.89         -42.87           23.6         -97.36          107.1           32.6
    0.3434              -28.37          28.29          54.52          46.36         -14.04         -10.88         -42.83          23.58         -97.22          107.1          32.67
     0.359              -28.36          28.29          54.54          46.37         -14.03         -10.86          -42.8          23.55         -97.06          107.1          32.75
    0.3746              -28.35          28.28          54.57          46.38         -14.02         -10.85         -42.75          23.52         -96.89          107.1          32.84
    0.3902              -28.33          28.27           54.6           46.4          -14.0         -10.83         -42.71          23.49         -96.69          107.1          32.94
    0.4059              -28.32          28.26          54.63          46.41         -13.99         -10.82         -42.65          23.46         -96.47          107.2          33.06
    0.4215               -28.3          28.25          54.67          46.43         -13.97          -10.8         -42.59          23.42         -96.22          107.2          33.18
    0.4371              -28.28          28.24          54.71          46.45         -13.95         -10.77         -42.52          23.38         -95.94          107.2          33.33
    0.4527              -28.26          28.23          54.76          46.47         -13.93         -10.75         -42.45          23.33         -95.62          107.3          33.49
    0.4683              -28.23          28.22          54.81          46.49         -13.91         -10.72         -42.36          23.27         -95.26          107.3          33.67
    0.4839               -28.2           28.2          54.87          46.52         -13.88         -10.69         -42.26           23.2         -94.85          107.4          33.89
    0.4995              -28.17          28.18          54.95          46.55         -13.84         -10.65         -42.14          23.13         -94.37          107.4          34.13
    0.5151              -28.13          28.16          55.03          46.59         -13.81          -10.6         -42.01          23.04         -93.81          107.5          34.42
    0.5307              -28.08          28.14          55.13          46.63         -13.76         -10.55         -41.85          22.93         -93.16          107.6          34.75
    0.5463              -28.02          28.11          55.24          46.68         -13.71         -10.49         -41.66          22.81         -92.39          107.7          35.15
     0.562              -27.96          28.07          55.38          46.75         -13.64         -10.41         -41.44          22.67         -91.47          107.8          35.61
    0.5776              -27.88          28.03          55.54          46.82         -13.57         -10.32         -41.17          22.49         -90.38          108.0          36.17
    0.5932              -27.78          27.98          55.74          46.91         -13.48         -10.22         -40.85          22.28         -89.05          108.1          36.85
    0.6088              -27.66          27.92          55.99          47.02         -13.36         -10.09         -40.46          22.03         -87.43          108.3          37.68
    0.6244              -27.52          27.84          56.29          47.15         -13.23         -9.926         -39.97          21.71         -85.43          108.6          38.71
      0.64              -27.34          27.75          56.66          47.32         -13.05         -9.724         -39.37          21.32         -82.94          108.9          39.98
    0.6556              -27.11          27.62          57.13          47.53         -12.84         -9.471         -38.61          20.82          -79.8          109.3          41.59
    0.6712              -26.82          27.47          57.73           47.8         -12.56         -9.148         -37.64          20.19          -75.8          109.8          43.63
    0.6868              -26.45          27.28           58.5          48.14         -12.21         -8.736          -36.4          19.38         -70.69          110.5          46.25
    0.7024              -25.97          27.03          59.48          48.58         -11.75         -8.207         -34.81          18.34         -64.14          111.3           49.6
    0.7181              -25.36          26.71          60.73          49.14         -11.17          -7.53         -32.77          17.01         -55.76          112.4          53.89
    0.7337               -24.6           26.3          62.31          49.85         -10.44          -6.68         -30.22          15.35         -45.23          113.8          59.28
    0.7493              -23.67          25.81          64.24          50.71         -9.554         -5.644          -27.1          13.32         -32.39          115.5          65.85
    0.7649              -22.59          25.24          66.47          51.71         -8.524         -4.443         -23.49          10.96         -17.51          117.4          73.46
    0.7805              -21.42          24.63          68.88           52.8         -7.409         -3.143         -19.58           8.41         -1.403          119.5           81.7
    0.7961              -20.25          24.01           71.3          53.88         -6.293         -1.842         -15.67           5.86          14.71          121.5          89.95
    0.8117              -19.17          23.44          73.53          54.88         -5.263        -0.6415         -12.06          3.504          29.58          123.5          97.56
    0.8273              -18.23          22.95          75.46          55.74         -4.375         0.3946          -8.95          1.473          42.42          125.1          104.1
